<svg width="43" height="43" viewBox="0 0 43 43" fill="none" xmlns="http://www.w3.org/2000/svg">
<path fill-rule="evenodd" clip-rule="evenodd" d="M21.4359 0C9.58242 0 0 9.85417 0 22.0451C0 31.79 6.13978 40.0388 14.6573 42.9583C15.7222 43.1778 16.1123 42.484 16.1123 41.9004C16.1123 41.3893 16.0772 39.6375 16.0772 37.8122C10.1142 39.1264 8.87248 35.1843 8.87248 35.1843C7.91419 32.6294 6.49432 31.9727 6.49432 31.9727C4.54264 30.6223 6.63648 30.6223 6.63648 30.6223C8.8014 30.7683 9.93739 32.8851 9.93739 32.8851C11.8535 36.2427 14.9412 35.294 16.1834 34.71C16.3606 33.2865 16.9288 32.3011 17.5322 31.7537C12.7763 31.2426 7.77247 29.3448 7.77247 20.8769C7.77247 18.4681 8.62369 16.4972 9.97249 14.9644C9.75968 14.4171 9.0142 12.1538 10.1857 9.12451C10.1857 9.12451 11.9957 8.54043 16.0767 11.3874C17.824 10.9048 19.6259 10.6593 21.4359 10.6573C23.2459 10.6573 25.0909 10.913 26.7947 11.3874C30.8762 8.54043 32.6861 9.12451 32.6861 9.12451C33.8577 12.1538 33.1118 14.4171 32.8989 14.9644C34.2833 16.4972 35.0994 18.4681 35.0994 20.8769C35.0994 29.3448 30.0956 31.2059 25.3042 31.7537C26.0852 32.4471 26.7592 33.7608 26.7592 35.8414C26.7592 38.7976 26.7241 41.1703 26.7241 41.8999C26.7241 42.484 27.1146 43.1778 28.179 42.9588C36.6966 40.0384 42.8363 31.79 42.8363 22.0451C42.8714 9.85417 33.2539 0 21.4359 0Z" fill="#24292F"/>
</svg>
